<svg width="20" height="20" viewBox="0 0 20 20" fill="none" xmlns="http://www.w3.org/2000/svg">
<path d="M19.1666 11.8333L16.4726 9.89351C15.0726 8.88556 13.1594 8.98973 11.8772 10.1437L8.12273 13.5228C6.84052 14.6768 4.92733 14.7809 3.5274 13.773L0.833313 11.8333M4.49998 19.1666H15.5C17.525 19.1666 19.1666 17.525 19.1666 15.4999V4.49992C19.1666 2.47487 17.525 0.833252 15.5 0.833252H4.49998C2.47494 0.833252 0.833313 2.47487 0.833313 4.49992V15.4999C0.833313 17.525 2.47494 19.1666 4.49998 19.1666ZM9.08331 6.79159C9.08331 8.05724 8.0573 9.08325 6.79165 9.08325C5.52599 9.08325 4.49998 8.05724 4.49998 6.79159C4.49998 5.52593 5.52599 4.49992 6.79165 4.49992C8.0573 4.49992 9.08331 5.52593 9.08331 6.79159Z" stroke="#8D7BB8" stroke-width="1.5" stroke-linecap="round"/>
</svg>
