<svg width="21" height="20" viewBox="0 0 21 20" fill="none" xmlns="http://www.w3.org/2000/svg">
<path d="M17.3207 2.92929C15.431 1.03956 12.9226 0 10.25 0C7.57744 0 5.06902 1.03956 3.17929 2.92929C1.28956 4.81902 0.25 7.32744 0.25 10C0.25 12.6726 1.28956 15.181 3.17929 17.0707C5.06902 18.9604 7.57744 20 10.25 20C12.9226 20 15.431 18.9604 17.3207 17.0707C19.2104 15.181 20.25 12.6726 20.25 10C20.25 7.32744 19.2104 4.81902 17.3207 2.92929ZM16.5168 16.2668C14.8418 17.9419 12.6153 18.8636 10.25 18.8636C7.88468 18.8636 5.65825 17.9419 3.98317 16.2668C0.527778 12.8114 0.527778 7.18855 3.98317 3.73317C5.65825 2.05808 7.88468 1.13636 10.25 1.13636C12.6153 1.13636 14.8418 2.05808 16.5168 3.73316C19.9722 7.18855 19.9722 12.8114 16.5168 16.2668Z" fill="#1F1F1F"/>
<path d="M14.6565 5.59332C14.4334 5.37026 14.0756 5.37026 13.8526 5.59332L10.2499 9.19602L6.6472 5.59332C6.42413 5.37026 6.06639 5.37026 5.84332 5.59332C5.62026 5.81639 5.62026 6.17413 5.84332 6.3972L9.44602 9.99989L5.84332 13.6026C5.62026 13.8256 5.62026 14.1834 5.84332 14.4065C5.95275 14.5159 6.10006 14.5748 6.24316 14.5748C6.38625 14.5748 6.53356 14.5201 6.64299 14.4065L10.2457 10.8038L13.8484 14.4065C13.9578 14.5159 14.1051 14.5748 14.2482 14.5748C14.3955 14.5748 14.5386 14.5201 14.648 14.4065C14.8711 14.1834 14.8711 13.8256 14.648 13.6026L11.0538 9.99989L14.6565 6.3972C14.8795 6.17413 14.8795 5.81639 14.6565 5.59332Z" fill="#1F1F1F"/>
</svg>
