<svg width="24" height="24" viewBox="0 0 24 24" fill="none" xmlns="http://www.w3.org/2000/svg">
<path d="M18.1776 17.8443C16.6362 17.8428 15.3854 19.0912 15.3839 20.6326C15.3824 22.174 16.6308 23.4247 18.1722 23.4262C19.7136 23.4277 20.9643 22.1794 20.9658 20.638C20.9658 20.6371 20.9658 20.6362 20.9658 20.6353C20.9644 19.0955 19.7173 17.8473 18.1776 17.8443Z" fill="#1F1F1F"/>
<path d="M23.1278 4.47973C23.061 4.4668 22.9932 4.46023 22.9251 4.46012H5.93181L5.66267 2.65958C5.49499 1.46381 4.47216 0.574129 3.26466 0.573761H1.07655C0.481978 0.573761 0 1.05574 0 1.65031C0 2.24489 0.481978 2.72686 1.07655 2.72686H3.26734C3.40423 2.72587 3.52008 2.82779 3.53648 2.96373L5.19436 14.3267C5.42166 15.7706 6.66363 16.8358 8.12528 16.8405H19.3241C20.7313 16.8423 21.9454 15.8533 22.2281 14.4747L23.9802 5.74121C24.0931 5.15746 23.7115 4.59269 23.1278 4.47973Z" fill="#1F1F1F"/>
<path d="M11.3404 20.5158C11.2749 19.0196 10.0401 17.8418 8.54243 17.847C7.0023 17.9092 5.80422 19.2083 5.86645 20.7484C5.92617 22.2262 7.1283 23.4008 8.60704 23.4263H8.67432C10.2142 23.3588 11.4079 22.0557 11.3404 20.5158Z" fill="#1F1F1F"/>
</svg>
