<svg width="20" height="18" viewBox="0 0 20 18" fill="none" xmlns="http://www.w3.org/2000/svg">
<path d="M17.5 3.99999H4.16667C3.45083 3.99999 2.77333 3.68999 2.30417 3.16749C2.7625 2.65582 3.42833 2.33332 4.16667 2.33332H19.1667C19.6275 2.33332 20 1.95999 20 1.49999C20 1.03999 19.6275 0.666656 19.1667 0.666656H4.16667C1.86583 0.666656 0 2.53249 0 4.83332V13.1667C0 15.4675 1.86583 17.3333 4.16667 17.3333H17.5C18.8808 17.3333 20 16.2142 20 14.8333V6.49999C20 5.11916 18.8808 3.99999 17.5 3.99999ZM18.3333 14.8333C18.3333 15.2925 17.96 15.6667 17.5 15.6667H4.16667C2.78833 15.6667 1.66667 14.545 1.66667 13.1667V4.83166C2.37833 5.36416 3.25333 5.66666 4.16667 5.66666H17.5C17.96 5.66666 18.3333 6.04082 18.3333 6.49999V14.8333ZM16.6667 10.6667C16.6667 11.1267 16.2933 11.5 15.8333 11.5C15.3733 11.5 15 11.1267 15 10.6667C15 10.2067 15.3733 9.83332 15.8333 9.83332C16.2933 9.83332 16.6667 10.2067 16.6667 10.6667Z" fill="#8D7BB8"/>
</svg>
