<svg width="17" height="16" viewBox="0 0 17 16" fill="none" xmlns="http://www.w3.org/2000/svg">
<path d="M8.5 16C4.08867 16 0.5 12.4113 0.5 8C0.5 3.58867 4.08867 0 8.5 0C12.9113 0 16.5 3.58867 16.5 8C16.5 12.4113 12.9113 16 8.5 16ZM8.5 1.33333C4.824 1.33333 1.83333 4.324 1.83333 8C1.83333 11.676 4.824 14.6667 8.5 14.6667C12.176 14.6667 15.1667 11.676 15.1667 8C15.1667 4.324 12.176 1.33333 8.5 1.33333ZM11.8333 8C11.8333 7.82319 11.7631 7.65362 11.6381 7.5286C11.513 7.40357 11.3435 7.33333 11.1667 7.33333H9.16667V4C9.16667 3.82319 9.09643 3.65362 8.97141 3.5286C8.84638 3.40357 8.67681 3.33333 8.5 3.33333C8.32319 3.33333 8.15362 3.40357 8.0286 3.5286C7.90357 3.65362 7.83333 3.82319 7.83333 4V8C7.83333 8.17681 7.90357 8.34638 8.0286 8.47141C8.15362 8.59643 8.32319 8.66667 8.5 8.66667H11.1667C11.3435 8.66667 11.513 8.59643 11.6381 8.47141C11.7631 8.34638 11.8333 8.17681 11.8333 8Z" fill="#1F1F1F"/>
</svg>
