<svg width="20" height="18" viewBox="0 0 20 18" fill="none" xmlns="http://www.w3.org/2000/svg">
<path d="M17.5 9.35341V8.16675C17.5 6.17762 16.7098 4.26997 15.3033 2.86345C13.8968 1.45692 11.9891 0.666748 10 0.666748C8.01088 0.666748 6.10322 1.45692 4.6967 2.86345C3.29018 4.26997 2.5 6.17762 2.5 8.16675V9.35341C1.62597 9.73828 0.910667 10.4117 0.473851 11.261C0.0370351 12.1102 -0.094783 13.0838 0.100464 14.0186C0.295711 14.9535 0.806172 15.7929 1.54639 16.3963C2.28661 16.9997 3.21166 17.3306 4.16667 17.3334C4.60869 17.3334 5.03262 17.1578 5.34518 16.8453C5.65774 16.5327 5.83333 16.1088 5.83333 15.6667V10.6667C5.83333 10.2247 5.65774 9.8008 5.34518 9.48824C5.03262 9.17568 4.60869 9.00008 4.16667 9.00008V8.16675C4.16667 6.61965 4.78125 5.13592 5.87521 4.04196C6.96917 2.948 8.4529 2.33341 10 2.33341C11.5471 2.33341 13.0308 2.948 14.1248 4.04196C15.2188 5.13592 15.8333 6.61965 15.8333 8.16675V9.00008C15.3913 9.00008 14.9674 9.17568 14.6548 9.48824C14.3423 9.8008 14.1667 10.2247 14.1667 10.6667V15.6667H11.6667C11.4457 15.6667 11.2337 15.7545 11.0774 15.9108C10.9211 16.0671 10.8333 16.2791 10.8333 16.5001C10.8333 16.7211 10.9211 16.9331 11.0774 17.0893C11.2337 17.2456 11.4457 17.3334 11.6667 17.3334H15.8333C16.7883 17.3306 17.7134 16.9997 18.4536 16.3963C19.1938 15.7929 19.7043 14.9535 19.8995 14.0186C20.0948 13.0838 19.963 12.1102 19.5261 11.261C19.0893 10.4117 18.374 9.73828 17.5 9.35341ZM4.16667 15.6667C3.50362 15.6667 2.86774 15.4034 2.3989 14.9345C1.93006 14.4657 1.66667 13.8298 1.66667 13.1667C1.66667 12.5037 1.93006 11.8678 2.3989 11.399C2.86774 10.9301 3.50362 10.6667 4.16667 10.6667V15.6667ZM15.8333 15.6667V10.6667C16.4964 10.6667 17.1323 10.9301 17.6011 11.399C18.0699 11.8678 18.3333 12.5037 18.3333 13.1667C18.3333 13.8298 18.0699 14.4657 17.6011 14.9345C17.1323 15.4034 16.4964 15.6667 15.8333 15.6667Z" fill="#8D7BB8"/>
</svg>
