<svg width="20" height="21" viewBox="0 0 20 21" fill="none" xmlns="http://www.w3.org/2000/svg">
<path d="M7.5 10.1599C8.48891 10.1599 9.45561 9.86667 10.2779 9.31726C11.1001 8.76786 11.741 7.98696 12.1194 7.07333C12.4978 6.1597 12.5969 5.15437 12.4039 4.18446C12.211 3.21456 11.7348 2.32364 11.0355 1.62438C10.3363 0.925118 9.44536 0.448914 8.47545 0.255988C7.50555 0.0630618 6.50021 0.162079 5.58658 0.540517C4.67295 0.918955 3.89206 1.55982 3.34265 2.38206C2.79325 3.20431 2.5 4.17101 2.5 5.15991C2.50132 6.48559 3.02853 7.75659 3.96593 8.69399C4.90332 9.63138 6.17432 10.1586 7.5 10.1599ZM7.5 1.82658C8.15927 1.82658 8.80374 2.02208 9.3519 2.38835C9.90006 2.75462 10.3273 3.27522 10.5796 3.8843C10.8319 4.49339 10.8979 5.16361 10.7693 5.81022C10.6407 6.45682 10.3232 7.05076 9.85702 7.51694C9.39085 7.98311 8.7969 8.30058 8.1503 8.4292C7.5037 8.55782 6.83348 8.49181 6.22439 8.23951C5.6153 7.98722 5.09471 7.55998 4.72843 7.01182C4.36216 6.46365 4.16667 5.81919 4.16667 5.15991C4.16667 4.27586 4.51786 3.42801 5.14298 2.80289C5.7681 2.17777 6.61595 1.82658 7.5 1.82658ZM15 19.3266C15 19.5476 14.9122 19.7596 14.7559 19.9158C14.5996 20.0721 14.3877 20.1599 14.1667 20.1599C13.9457 20.1599 13.7337 20.0721 13.5774 19.9158C13.4211 19.7596 13.3333 19.5476 13.3333 19.3266C13.3333 17.7795 12.7188 16.2958 11.6248 15.2018C10.5308 14.1078 9.0471 13.4932 7.5 13.4932C5.9529 13.4932 4.46917 14.1078 3.37521 15.2018C2.28125 16.2958 1.66667 17.7795 1.66667 19.3266C1.66667 19.5476 1.57887 19.7596 1.42259 19.9158C1.26631 20.0721 1.05435 20.1599 0.833333 20.1599C0.61232 20.1599 0.400358 20.0721 0.244078 19.9158C0.0877974 19.7596 0 19.5476 0 19.3266C0 17.3375 0.790176 15.4298 2.1967 14.0233C3.60322 12.6168 5.51088 11.8266 7.5 11.8266C9.48912 11.8266 11.3968 12.6168 12.8033 14.0233C14.2098 15.4298 15 17.3375 15 19.3266ZM19.7558 12.0707C19.8354 12.1476 19.8989 12.2396 19.9426 12.3412C19.9863 12.4429 20.0092 12.5523 20.0102 12.6629C20.0112 12.7736 19.9901 12.8833 19.9482 12.9857C19.9063 13.0881 19.8444 13.1812 19.7662 13.2594C19.6879 13.3377 19.5949 13.3995 19.4925 13.4414C19.39 13.4833 19.2803 13.5044 19.1697 13.5035C19.059 13.5025 18.9497 13.4795 18.848 13.4358C18.7463 13.3922 18.6544 13.3287 18.5775 13.2491L17.0833 11.7549L15.5892 13.2491C15.432 13.4009 15.2215 13.4849 15.003 13.483C14.7845 13.4811 14.5755 13.3934 14.421 13.2389C14.2665 13.0844 14.1788 12.8754 14.1769 12.6569C14.175 12.4384 14.259 12.2279 14.4108 12.0707L15.905 10.5766L14.4108 9.08241C14.259 8.92525 14.175 8.71474 14.1769 8.49625C14.1788 8.27775 14.2665 8.06874 14.421 7.91423C14.5755 7.75973 14.7845 7.67209 15.003 7.67019C15.2215 7.66829 15.432 7.75228 15.5892 7.90408L17.0833 9.39825L18.5775 7.90408C18.7347 7.75228 18.9452 7.66829 19.1637 7.67019C19.3822 7.67209 19.5912 7.75973 19.7457 7.91423C19.9002 8.06874 19.9878 8.27775 19.9897 8.49625C19.9916 8.71474 19.9076 8.92525 19.7558 9.08241L18.2617 10.5766L19.7558 12.0707Z" fill="#FF0005"/>
</svg>
