<svg width="20" height="20" viewBox="0 0 20 20" fill="none" xmlns="http://www.w3.org/2000/svg">
<path d="M10.0002 0C8.42053 0.000169172 6.86336 0.374574 5.45626 1.09254C4.04916 1.81051 2.83218 2.85162 1.90499 4.13058C0.97781 5.40954 0.366811 6.88996 0.12205 8.45057C-0.122712 10.0112 0.005727 11.6076 0.496845 13.109C0.987963 14.6104 1.82779 15.9741 2.94752 17.0883C4.06725 18.2026 5.43504 19.0357 6.93882 19.5195C8.4426 20.0033 10.0396 20.1239 11.599 19.8715C13.1584 19.6192 14.6358 19.0009 15.9102 18.0675L14.9235 16.7242C13.4123 17.8308 11.5722 18.396 9.70032 18.3286C7.82841 18.2612 6.03379 17.5651 4.60603 16.3526C3.17827 15.1402 2.20063 13.482 1.83087 11.6457C1.4611 9.80948 1.72076 7.90218 2.56796 6.23159C3.41516 4.56101 4.80048 3.22456 6.50041 2.43789C8.20034 1.65122 10.1157 1.46021 11.9375 1.89567C13.7593 2.33113 15.3813 3.36767 16.5417 4.83805C17.7022 6.30842 18.3334 8.12687 18.3335 10V11.6667C18.3335 12.1087 18.158 12.5326 17.8454 12.8452C17.5328 13.1577 17.1089 13.3333 16.6669 13.3333C16.2249 13.3333 15.8009 13.1577 15.4884 12.8452C15.1758 12.5326 15.0002 12.1087 15.0002 11.6667V10C15.0043 8.82357 14.5948 7.68312 13.8434 6.77793C13.092 5.87273 12.0464 5.26035 10.8893 5.04779C9.73223 4.83523 8.53726 5.03601 7.51318 5.61504C6.48911 6.19407 5.70106 7.11453 5.28673 8.21559C4.87239 9.31665 4.85813 10.5283 5.24643 11.6388C5.63472 12.7493 6.40089 13.6881 7.41105 14.291C8.42121 14.894 9.61112 15.1229 10.7729 14.9376C11.9346 14.7523 12.9944 14.1648 13.7669 13.2775C14.1222 13.9247 14.6831 14.4351 15.3609 14.728C16.0387 15.0209 16.7948 15.0797 17.5097 14.8949C18.2245 14.7102 18.8575 14.2925 19.3085 13.7079C19.7596 13.1233 20.0029 12.405 20.0002 11.6667V10C19.9973 7.34872 18.9429 4.80684 17.0681 2.9321C15.1934 1.05736 12.6515 0.00286757 10.0002 0ZM10.0002 13.3333C9.34094 13.3333 8.69648 13.1378 8.14831 12.7716C7.60015 12.4053 7.17291 11.8847 6.92061 11.2756C6.66832 10.6665 6.60231 9.9963 6.73093 9.3497C6.85955 8.7031 7.17701 8.10915 7.64319 7.64298C8.10936 7.1768 8.70331 6.85933 9.34991 6.73072C9.99652 6.6021 10.6667 6.66811 11.2758 6.9204C11.8849 7.17269 12.4055 7.59994 12.7718 8.1481C13.138 8.69626 13.3335 9.34073 13.3335 10C13.3335 10.8841 12.9824 11.7319 12.3572 12.357C11.7321 12.9821 10.8843 13.3333 10.0002 13.3333Z" fill="#8D7BB8"/>
</svg>
