<svg width="24" height="34" viewBox="0 0 24 34" fill="none" xmlns="http://www.w3.org/2000/svg">
<path fill-rule="evenodd" clip-rule="evenodd" d="M7.11404 2.40189H8.79018C8.80546 1.7304 9.04616 1.0921 9.46138 0.621986C9.8766 0.151873 10.4338 -0.113189 11.0151 -0.117143C11.5964 -0.121096 12.1562 0.136369 12.5762 0.600802C12.9962 1.06523 13.2434 1.70022 13.2655 2.37146L15.2386 2.40189C15.3021 2.40189 15.363 2.43105 15.4079 2.48294C15.4528 2.53483 15.478 2.6052 15.478 2.67859V5.42891C15.478 5.5023 15.4528 5.57267 15.4079 5.62456C15.363 5.67645 15.3021 5.70561 15.2386 5.70561H7.11643C7.05293 5.70561 6.99202 5.67645 6.94712 5.62456C6.90221 5.57267 6.87698 5.5023 6.87698 5.42891V2.68689C6.87698 2.6135 6.90221 2.54313 6.94712 2.49124C6.99202 2.43935 7.05293 2.41019 7.11643 2.41019L7.11404 2.40189ZM15.3248 31.6677C15.4124 31.8286 15.4596 32.0144 15.4612 32.2045C15.4612 33.195 14.1323 34.0002 12.4969 34.0002C10.8614 34.0002 9.5205 33.2033 9.5205 32.2045C9.52273 32.0149 9.56904 31.8295 9.65459 31.6677C10.0329 32.3954 11.1559 32.9266 12.4849 32.9266C13.8138 32.9266 14.9368 32.3954 15.3128 31.6677H15.3248ZM23.8444 30.8182C23.9514 31.0159 24.0093 31.2437 24.012 31.4768C24.012 32.6914 22.3837 33.6903 20.3795 33.6903C18.3753 33.6903 16.7471 32.7025 16.7471 31.4768C16.7495 31.244 16.8066 31.0164 16.9123 30.8182C17.3744 31.712 18.7513 32.3622 20.3795 32.3622C22.0078 32.3622 23.3846 31.712 23.8444 30.8182ZM21.6893 25.2844L21.6462 25.8378L19.8623 25.6579C20.0105 25.876 20.1152 26.1292 20.1688 26.3995L19.7402 26.3552C19.6986 26.1828 19.6331 26.0192 19.5462 25.871C19.4551 25.6939 19.3187 25.5538 19.1559 25.4698L19.1895 25.0271L21.6702 25.2761L21.6893 25.2844ZM20.3771 24.4294C22.0245 24.4294 23.3607 25.0354 23.3607 25.7824C23.3607 26.5295 22.015 27.1161 20.3676 27.1161C18.7201 27.1161 17.3816 26.5074 17.3816 25.7631C17.3816 25.0188 18.7177 24.41 20.3676 24.41L20.3771 24.4294ZM20.3771 23.9784C22.3813 23.9784 24.0096 24.9662 24.0096 26.1919C24.0096 27.4177 22.3813 28.4055 20.3771 28.4055C18.3729 28.4055 16.7447 27.4177 16.7447 26.1919C16.7447 24.9662 18.3705 23.9784 20.3771 23.9784ZM23.8539 28.245C23.9536 28.4355 24.0073 28.6533 24.0096 28.8759C24.0096 30.0905 22.3813 31.0894 20.3771 31.0894C18.3729 31.0894 16.7447 30.1044 16.7447 28.8759C16.7458 28.6535 16.7987 28.4355 16.8979 28.245C17.3457 29.1498 18.7321 29.8138 20.3771 29.8138C22.0221 29.8138 23.4062 29.1498 23.8539 28.245ZM13.5576 27.1382L13.5241 27.5837L12.0682 27.4371C12.1854 27.6154 12.2672 27.8213 12.3077 28.0402L11.9725 28.0098C11.9399 27.8684 11.8864 27.7345 11.8144 27.6141C11.7419 27.4786 11.6372 27.3701 11.5127 27.3015L11.5391 26.939L13.5624 27.1438L13.5576 27.1382ZM12.4873 26.4382C13.833 26.4382 14.9225 26.9335 14.9225 27.545C14.9225 28.1565 13.833 28.6517 12.4873 28.6517C11.1416 28.6517 10.0569 28.1565 10.0569 27.5477C10.0569 26.939 11.1464 26.441 12.4921 26.441L12.4873 26.4382ZM12.4873 26.073C14.1227 26.073 15.4517 26.8781 15.4517 27.8687C15.4517 28.8593 14.1227 29.6644 12.4873 29.6644C10.8518 29.6644 9.5229 28.8593 9.5229 27.8687C9.5229 26.8781 10.8494 26.073 12.4873 26.073ZM15.3248 29.5593C15.4038 29.7156 15.4467 29.8929 15.4493 30.0739C15.4493 31.0645 14.1203 31.8697 12.4849 31.8697C10.8494 31.8697 9.5205 31.0645 9.5205 30.0739C9.52162 29.8926 9.5646 29.715 9.64502 29.5593C10.0114 30.2981 11.144 30.8404 12.4849 30.8404C13.8258 30.8404 14.9584 30.287 15.3248 29.5593ZM10.5669 7.85274H11.7881C11.8433 7.85127 11.8982 7.86256 11.9496 7.88595C12.0009 7.90935 12.0477 7.94437 12.0872 7.98897C12.1267 8.03357 12.1581 8.08683 12.1795 8.14564C12.2009 8.20445 12.2119 8.26762 12.2119 8.33142V10.1161H13.7588C13.8684 10.1168 13.9734 10.1675 14.051 10.2571C14.1285 10.3467 14.1724 10.468 14.173 10.5948V12.0031C14.1724 12.1299 14.1285 12.2512 14.051 12.3408C13.9734 12.4304 13.8684 12.4811 13.7588 12.4818H12.2119V14.2277C12.2119 14.3542 12.1686 14.4756 12.0914 14.5652C12.0143 14.6549 11.9095 14.7057 11.8001 14.7064H10.5789C10.4694 14.7057 10.3647 14.6549 10.2875 14.5652C10.2103 14.4756 10.167 14.3542 10.167 14.2277V12.4818H8.62017C8.5105 12.4811 8.4055 12.4304 8.32795 12.3408C8.2504 12.2512 8.20655 12.1299 8.20593 12.0031V10.5948C8.20655 10.468 8.2504 10.3467 8.32795 10.2571C8.4055 10.1675 8.5105 10.1168 8.62017 10.1161H10.167V8.33142C10.1667 8.26869 10.1771 8.20651 10.1977 8.14845C10.2182 8.09039 10.2485 8.03759 10.2868 7.99311C10.3251 7.94862 10.3706 7.91332 10.4207 7.88923C10.4708 7.86514 10.5246 7.85274 10.5789 7.85274H10.5669ZM1.48698 3.44226H5.05477V5.60876H2.97396C2.64171 5.61308 2.32413 5.76751 2.08918 6.039C1.85423 6.31049 1.72058 6.67748 1.71685 7.0614V29.0336C1.71936 29.4179 1.85261 29.7857 2.08782 30.0575C2.32303 30.3293 2.64133 30.4833 2.97396 30.4862H7.98563C8.01595 30.7142 8.06981 30.9371 8.14606 31.1503C8.11393 31.2404 8.08674 31.3328 8.06465 31.427C7.96213 31.8167 7.93757 32.2283 7.99282 32.6306H1.48698C1.09401 32.6284 0.717607 32.4474 0.439288 32.1269C0.160968 31.8063 0.00314432 31.3719 0 30.9178L0 5.16052C0.000633217 4.70503 0.1575 4.26841 0.436226 3.94633C0.714951 3.62426 1.0928 3.44299 1.48698 3.44226ZM20.6429 22.1744V7.0614C20.6404 6.67751 20.5075 6.31011 20.2728 6.03839C20.0381 5.76667 19.7204 5.61238 19.3882 5.60876H17.3026V3.44226H20.868C21.2618 3.44444 21.6389 3.62617 21.9174 3.94794C22.1958 4.2697 22.3531 4.70548 22.355 5.16052V22.4566C21.7926 22.2908 21.2159 22.198 20.6357 22.1799L20.6429 22.1744ZM4.36037 17.5481H18.4376V18.7434H4.35798V17.5481H4.36037ZM4.5663 24.9717H9.74319L9.67136 25.0132C9.19695 25.2878 8.78205 25.6821 8.45735 26.167H4.5639V24.9717H4.5663ZM4.36037 21.3747H18.4376V22.4427C18.3059 22.4815 18.1766 22.523 18.0521 22.57H4.35798V21.3692L4.36037 21.3747ZM10.1072 3.58337C10.2621 3.83788 10.4684 4.04492 10.7082 4.18656C10.9002 4.24743 11.1028 4.24743 11.2948 4.18656C11.6052 3.9938 11.853 3.68991 12.0012 3.32051C12.0162 3.22927 12.0242 3.13668 12.0251 3.04382C12.0347 2.88484 12.0158 2.72529 11.9697 2.5751C11.9235 2.42491 11.8512 2.28729 11.7571 2.17078C11.663 2.05427 11.5492 1.96138 11.4227 1.89786C11.2962 1.83434 11.1598 1.80157 11.0218 1.80157C10.8839 1.80157 10.7475 1.83434 10.621 1.89786C10.4945 1.96138 10.3807 2.05427 10.2866 2.17078C10.1925 2.28729 10.1202 2.42491 10.074 2.5751C10.0279 2.72529 10.009 2.88484 10.0186 3.04382C10.017 3.22831 10.0488 3.41114 10.1119 3.5806L10.1072 3.58337Z" fill="#1EB7CF"/>
</svg>
