<svg width="18" height="17" viewBox="0 0 18 17" fill="none" xmlns="http://www.w3.org/2000/svg">
<path d="M16.5653 2.06581C15.6344 1.0561 14.357 0.5 12.9682 0.5C11.93 0.5 10.9793 0.828199 10.1424 1.4754C9.72006 1.80209 9.33738 2.20178 8.99999 2.66828C8.66274 2.20192 8.27993 1.80209 7.85747 1.4754C7.02065 0.828198 6.06994 0.5 5.03183 0.5C3.64302 0.5 2.36548 1.0561 1.43454 2.06581C0.514702 3.06371 0.00799561 4.427 0.00799561 5.90472C0.00799561 7.42566 0.574797 8.8179 1.79169 10.2863C2.88029 11.5998 4.44486 12.9332 6.25668 14.4772C6.87534 15.0044 7.57661 15.6021 8.30476 16.2388C8.49713 16.4072 8.74397 16.5 8.99999 16.5C9.25589 16.5 9.50286 16.4072 9.69495 16.239C10.4231 15.6023 11.1248 15.0043 11.7437 14.4767C13.5553 12.933 15.1198 11.5998 16.2084 10.2862C17.4253 8.8179 17.992 7.42566 17.992 5.90459C17.992 4.42701 17.4853 3.06372 16.5653 2.06581L16.5653 2.06581Z" fill="#BCBCBC"/>
</svg>
