<svg width="12" height="13" viewBox="0 0 12 13" fill="none" xmlns="http://www.w3.org/2000/svg">
<g clip-path="url(#clip0_256_269)">
<path d="M3.5 12.8334C4.05228 12.8334 4.5 12.3857 4.5 11.8334C4.5 11.2811 4.05228 10.8334 3.5 10.8334C2.94772 10.8334 2.5 11.2811 2.5 11.8334C2.5 12.3857 2.94772 12.8334 3.5 12.8334Z" fill="white"/>
<path d="M8.5 12.8334C9.05228 12.8334 9.5 12.3857 9.5 11.8334C9.5 11.2811 9.05228 10.8334 8.5 10.8334C7.94772 10.8334 7.5 11.2811 7.5 11.8334C7.5 12.3857 7.94772 12.8334 8.5 12.8334Z" fill="white"/>
<path d="M11.5 2.33337H10.5V1.33337C10.5 1.20077 10.4473 1.07359 10.3536 0.979821C10.2598 0.886052 10.1326 0.833374 10 0.833374C9.86739 0.833374 9.74021 0.886052 9.64645 0.979821C9.55268 1.07359 9.5 1.20077 9.5 1.33337V2.33337H8.5C8.36739 2.33337 8.24021 2.38605 8.14645 2.47982C8.05268 2.57359 8 2.70077 8 2.83337C8 2.96598 8.05268 3.09316 8.14645 3.18693C8.24021 3.2807 8.36739 3.33337 8.5 3.33337H9.5V4.33337C9.5 4.46598 9.55268 4.59316 9.64645 4.68693C9.74021 4.7807 9.86739 4.83337 10 4.83337C10.1326 4.83337 10.2598 4.7807 10.3536 4.68693C10.4473 4.59316 10.5 4.46598 10.5 4.33337V3.33337H11.5C11.6326 3.33337 11.7598 3.2807 11.8536 3.18693C11.9473 3.09316 12 2.96598 12 2.83337C12 2.70077 11.9473 2.57359 11.8536 2.47982C11.7598 2.38605 11.6326 2.33337 11.5 2.33337Z" fill="white"/>
<path d="M10.8855 5.69637C10.8209 5.68428 10.7544 5.68513 10.6901 5.69889C10.6258 5.71265 10.5649 5.73903 10.5108 5.77652C10.4568 5.814 10.4107 5.86184 10.3753 5.91726C10.3399 5.97268 10.3158 6.03458 10.3045 6.09937C10.2421 6.44545 10.0602 6.75862 9.79039 6.98417C9.52061 7.20972 9.18015 7.33332 8.8285 7.33337H2.709L2.239 3.33337H6.5C6.63261 3.33337 6.75979 3.2807 6.85355 3.18693C6.94732 3.09316 7 2.96598 7 2.83337C7 2.70077 6.94732 2.57359 6.85355 2.47982C6.75979 2.38605 6.63261 2.33337 6.5 2.33337H2.121L2.1 2.15737C2.05691 1.79267 1.88153 1.45645 1.60709 1.21243C1.33266 0.968401 0.978237 0.83353 0.611 0.833374H0.5C0.367392 0.833374 0.240215 0.886052 0.146447 0.979821C0.0526784 1.07359 0 1.20077 0 1.33337C0 1.46598 0.0526784 1.59316 0.146447 1.68693C0.240215 1.7807 0.367392 1.83337 0.5 1.83337H0.611C0.733467 1.83339 0.851669 1.87835 0.943186 1.95973C1.0347 2.04111 1.09317 2.15325 1.1075 2.27487L1.7955 8.12487C1.86693 8.73327 2.15924 9.29426 2.61695 9.70138C3.07467 10.1085 3.66593 10.3334 4.2785 10.3334H9.5C9.63261 10.3334 9.75979 10.2807 9.85355 10.1869C9.94732 10.0932 10 9.96598 10 9.83337C10 9.70077 9.94732 9.57359 9.85355 9.47982C9.75979 9.38605 9.63261 9.33337 9.5 9.33337H4.2785C3.96826 9.33343 3.66563 9.2373 3.41231 9.0582C3.15898 8.87911 2.96741 8.62587 2.864 8.33337H8.8285C9.41457 8.33343 9.98204 8.12758 10.4318 7.75178C10.8815 7.37599 11.1849 6.85413 11.289 6.27737C11.3007 6.21273 11.2995 6.14641 11.2855 6.08222C11.2716 6.01803 11.2451 5.95722 11.2076 5.90326C11.1702 5.84931 11.1224 5.80326 11.0672 5.76776C11.0119 5.73226 10.9502 5.70801 10.8855 5.69637Z" fill="white"/>
</g>
<defs>
<clipPath id="clip0_256_269">
<rect width="12" height="12" fill="white" transform="translate(0 0.833374)"/>
</clipPath>
</defs>
</svg>
