<svg width="32" height="24" viewBox="0 0 32 24" fill="none" xmlns="http://www.w3.org/2000/svg">
<path d="M15.0042 1.5013C15.7674 0.740164 16.5829 0.815615 17.4506 1.72766C17.5028 1.78238 17.5645 1.80974 17.6356 1.80974C22.106 1.81306 26.5779 1.81389 31.0513 1.81223C32.1939 1.81223 32.4921 4.04839 30.8859 4.05088C26.4952 4.05254 22.1046 4.05254 17.7139 4.05088C17.6399 4.05088 17.579 4.08239 17.5311 4.1454C15.8074 6.48106 13.102 3.40167 15.0042 1.5013Z" fill="#242021"/>
<path d="M0.0340099 4.55833C-0.10746 3.53352 0.177661 2.75249 1.16795 2.75C5.12477 2.74171 9.08085 2.74088 13.0362 2.74751C13.1102 2.74751 13.1465 2.79062 13.145 2.87685C13.1349 3.59322 13.3054 4.24575 13.6565 4.83443C13.716 4.93392 13.6928 4.98367 13.5869 4.98367H2.31713C2.19234 4.98367 2.13938 5.05415 2.15824 5.1951C2.77926 9.90953 3.39448 14.6488 4.00389 19.413C4.13883 20.4776 4.89406 20.7736 5.78641 20.7736C12.6292 20.7802 19.4727 20.7811 26.317 20.7761C27.1636 20.7761 27.6076 20.0548 27.7317 19.1145C28.3237 14.6173 28.9135 10.121 29.5012 5.62542C29.5128 5.53587 29.5578 5.49027 29.6361 5.48861L31.436 5.46374C31.4868 5.46208 31.5086 5.48944 31.5013 5.54582C30.9064 10.0994 30.313 14.6546 29.721 19.2115C29.3488 22.077 28.0081 23.0147 25.5748 23.0147C19.2674 23.0181 12.9608 23.0189 6.65482 23.0172C3.52941 23.0172 2.36936 22.2511 1.91883 18.7539C1.30797 14.0195 0.679694 9.28768 0.0340099 4.55833Z" fill="#242021"/>
<path d="M11.2263 10.8217H11.1567C10.6362 10.8217 10.2143 11.3039 10.2143 11.8987V16.8884C10.2143 17.4833 10.6362 17.9655 11.1567 17.9655H11.2263C11.7468 17.9655 12.1688 17.4833 12.1688 16.8884V11.8987C12.1688 11.3039 11.7468 10.8217 11.2263 10.8217Z" fill="#8D7BB8"/>
<path d="M16.0656 10.8217H15.9959C15.4755 10.8217 15.0535 11.3039 15.0535 11.8987V16.8884C15.0535 17.4833 15.4755 17.9655 15.9959 17.9655H16.0656C16.5861 17.9655 17.008 17.4833 17.008 16.8884V11.8987C17.008 11.3039 16.5861 10.8217 16.0656 10.8217Z" fill="#8D7BB8"/>
<path d="M20.9058 10.8165H20.8405C20.3188 10.8165 19.8959 11.2998 19.8959 11.8961V16.8858C19.8959 17.482 20.3188 17.9653 20.8405 17.9653H20.9058C21.4274 17.9653 21.8503 17.482 21.8503 16.8858V11.8961C21.8503 11.2998 21.4274 10.8165 20.9058 10.8165Z" fill="#8D7BB8"/>
</svg>
