<svg width="24" height="18" viewBox="0 0 24 18" fill="none" xmlns="http://www.w3.org/2000/svg">
<path fill-rule="evenodd" clip-rule="evenodd" d="M4.10414 7.44982C5.10825 6.01494 6.26545 5.23468 7.13452 6.51105C8.13033 6.57155 8.51794 8.33265 7.83366 9.20198C7.95356 9.22821 8.04802 9.3201 8.0865 9.45751C8.11078 9.54484 8.11275 9.65266 8.0827 9.78097L7.96177 10.1789C7.93687 10.2606 7.91264 10.3193 7.85578 10.3714C7.81003 10.4135 7.75936 10.4354 7.69298 10.4403C7.65947 10.8389 7.47562 11.041 7.24064 11.2966C7.51364 11.8805 8.08636 11.9915 8.57278 12.1002C9.31725 12.2666 10.247 13.0795 10.247 14.001V14.3765C10.2469 14.407 10.2364 14.4362 10.2177 14.4578C10.199 14.4793 10.1737 14.4915 10.1474 14.4915H2.42025C2.39387 14.4915 2.36858 14.4793 2.34992 14.4578C2.33126 14.4362 2.32075 14.407 2.32069 14.3765V14.0368C2.32069 12.9296 3.29555 12.2757 4.07789 12.1546C4.62394 12.0701 5.082 11.9845 5.29514 11.2747C5.07839 11.0573 4.89966 10.8557 4.84659 10.4315C4.80377 10.4234 4.76254 10.4065 4.72486 10.3816L4.71075 10.3712C4.62905 10.3114 4.57191 10.2187 4.53328 10.1156C4.48838 9.99748 4.46855 9.85935 4.464 9.75538V9.58479C4.46747 9.43247 4.48069 9.31115 4.57739 9.19179L4.55948 9.18111C4.52039 8.61594 4.63486 7.63543 4.10414 7.44982ZM1.95853 0H22.0415C23.1185 0 24 1.01938 24 2.26491V15.7351C24 16.9789 23.117 18 22.0415 18H1.95853C0.881485 18 0 16.9806 0 15.7351V2.26491C0 1.02079 0.882703 0 1.95853 0ZM12.1818 12.079C11.8421 12.079 11.8421 11.2814 12.1818 11.2814H21.0976C21.4374 11.2814 21.4374 12.079 21.0976 12.079H12.1818ZM12.182 14.4915C11.842 14.4915 11.8421 13.6941 12.182 13.6941H21.0976C21.4375 13.6941 21.4377 14.4915 21.0976 14.4915H12.182ZM12.1818 7.26362C11.8421 7.26362 11.842 6.46622 12.1818 6.46622H18.5692C18.9092 6.46622 18.909 7.26362 18.5692 7.26362H12.1818ZM12.1818 9.67125C11.842 9.67125 11.8421 8.87375 12.1818 8.87375H21.0884C21.4281 8.87375 21.4283 9.67125 21.0884 9.67125H12.1818ZM23.5185 4.17269H0.481453V15.7351C0.481453 16.674 1.14661 17.4432 1.95853 17.4432H22.0415C22.854 17.4432 23.5185 16.6747 23.5185 15.7351V4.17269ZM4.65619 9.46331C4.71867 9.25646 4.86389 9.32292 5.07094 9.41035C4.98834 8.97669 5.0858 8.638 5.37942 8.40328C6.00581 7.90208 6.2888 8.33108 6.96764 7.69891C7.35769 7.92593 7.70663 8.30999 7.52883 9.50961C7.71694 9.34465 7.98825 9.3601 7.90294 9.72541L7.78636 10.1074C7.75847 10.1987 7.73981 10.2318 7.63992 10.2257C7.59581 10.2231 7.55142 10.2033 7.50712 10.1694C7.54805 10.733 7.31142 10.9169 7.01541 11.2476C6.55922 11.7565 6.02583 11.7354 5.55239 11.2484C5.27513 10.9632 5.0288 10.79 5.01652 10.2036C4.9447 10.2292 4.87678 10.2338 4.81734 10.1947C4.69912 10.1168 4.65591 9.89036 4.64953 9.74519C4.64695 9.68687 4.64906 9.52278 4.65619 9.46331ZM7.07798 11.4725C7.18655 11.6781 7.34325 11.816 7.51819 11.8998C6.81787 12.4941 5.85089 12.4401 5.13052 11.9323C5.30986 11.8206 5.41566 11.6676 5.48569 11.4655C5.74327 11.71 6.0202 11.8362 6.29836 11.836C6.56883 11.8359 6.83437 11.717 7.07798 11.4725Z" fill="#1EB7CF"/>
</svg>
