<svg width="23" height="25" viewBox="0 0 23 25" fill="none" xmlns="http://www.w3.org/2000/svg">
<path d="M11.5 24.1602C14.0252 24.1577 16.4727 23.2865 18.4315 21.6928C20.3903 20.0991 21.7412 17.88 22.2572 15.4081C22.7733 12.9361 22.4231 10.3619 21.2655 8.11762C20.1079 5.87335 18.2134 4.09571 15.9 3.08317C15.7795 3.02982 15.6497 3.00082 15.518 2.99782C15.3862 2.99482 15.2552 3.01788 15.1324 3.06568C15.0096 3.11348 14.8975 3.18508 14.8025 3.27635C14.7074 3.36763 14.6314 3.47679 14.5787 3.59755C14.526 3.71832 14.4976 3.84831 14.4953 3.98005C14.493 4.1118 14.5168 4.2427 14.5652 4.36524C14.6137 4.48777 14.6859 4.59952 14.7776 4.69407C14.8694 4.78862 14.979 4.8641 15.1 4.91617C16.9951 5.74323 18.5475 7.19758 19.4964 9.03467C20.4452 10.8718 20.7326 12.9795 20.3102 15.0036C19.8877 17.0276 18.7812 18.8445 17.1768 20.1487C15.5723 21.4529 13.5677 22.1648 11.5 22.1648C9.43234 22.1648 7.42773 21.4529 5.82326 20.1487C4.21878 18.8445 3.11229 17.0276 2.68984 15.0036C2.2674 12.9795 2.55477 10.8718 3.50363 9.03467C4.45248 7.19758 6.00496 5.74323 7.9 4.91617C8.02104 4.8641 8.1306 4.78862 8.22238 4.69407C8.31415 4.59952 8.38634 4.48777 8.43479 4.36524C8.48323 4.2427 8.50699 4.1118 8.50468 3.98005C8.50237 3.84831 8.47405 3.71832 8.42135 3.59755C8.36864 3.47679 8.29258 3.36763 8.19756 3.27635C8.10253 3.18508 7.99039 3.11348 7.8676 3.06568C7.74482 3.01788 7.61379 2.99482 7.48206 2.99782C7.35033 3.00082 7.22049 3.02982 7.1 3.08317C4.78666 4.09571 2.89214 5.87335 1.73454 8.11762C0.576938 10.3619 0.226758 12.9361 0.742796 15.4081C1.25883 17.88 2.60967 20.0991 4.56847 21.6928C6.52728 23.2865 8.97478 24.1577 11.5 24.1602Z" fill="#707070"/>
<path d="M11.5 10.1601C11.7652 10.1601 12.0196 10.0548 12.2071 9.86726C12.3946 9.67972 12.5 9.42537 12.5 9.16015V1.16016C12.5 0.894939 12.3946 0.640585 12.2071 0.453049C12.0196 0.265513 11.7652 0.160156 11.5 0.160156C11.2348 0.160156 10.9804 0.265513 10.7929 0.453049C10.6054 0.640585 10.5 0.894939 10.5 1.16016V9.16015C10.5 9.42537 10.6054 9.67972 10.7929 9.86726C10.9804 10.0548 11.2348 10.1601 11.5 10.1601Z" fill="#707070"/>
</svg>
