<svg width="20" height="20" viewBox="0 0 20 20" fill="none" xmlns="http://www.w3.org/2000/svg">
<path d="M16.7808 20C16.4725 19.9992 16.1675 19.9372 15.8833 19.8178C15.5991 19.6984 15.3413 19.5238 15.125 19.3042L9.99999 14.2092L4.87499 19.3075C4.54585 19.6414 4.12373 19.8685 3.66367 19.959C3.20361 20.0495 2.72695 19.9993 2.29582 19.815C1.86042 19.6399 1.48795 19.3375 1.22704 18.9474C0.966133 18.5573 0.828922 18.0976 0.833324 17.6283V4.16667C0.833324 3.0616 1.27231 2.00179 2.05371 1.22039C2.83511 0.438987 3.89492 0 4.99999 0L15 0C15.5472 0 16.089 0.107774 16.5945 0.317169C17.1 0.526563 17.5594 0.833478 17.9463 1.22039C18.3332 1.6073 18.6401 2.06663 18.8495 2.57215C19.0589 3.07768 19.1667 3.61949 19.1667 4.16667V17.6283C19.1713 18.0972 19.0346 18.5567 18.7743 18.9467C18.514 19.3368 18.1423 19.6393 17.7075 19.815C17.414 19.9377 17.0989 20.0006 16.7808 20ZM4.99999 1.66667C4.33695 1.66667 3.70107 1.93006 3.23222 2.3989C2.76338 2.86774 2.49999 3.50363 2.49999 4.16667V17.6283C2.49969 17.7672 2.54055 17.903 2.61741 18.0187C2.69427 18.1343 2.80368 18.2246 2.93182 18.2781C3.05996 18.3316 3.20108 18.3459 3.33736 18.3193C3.47364 18.2926 3.59896 18.2262 3.69749 18.1283L9.41666 12.4442C9.57279 12.289 9.784 12.2018 10.0042 12.2018C10.2243 12.2018 10.4355 12.289 10.5917 12.4442L16.3042 18.1267C16.4027 18.2245 16.528 18.291 16.6643 18.3176C16.8006 18.3443 16.9417 18.33 17.0698 18.2764C17.198 18.2229 17.3074 18.1327 17.3842 18.017C17.4611 17.9014 17.502 17.7655 17.5017 17.6267V4.16667C17.5017 3.50363 17.2383 2.86774 16.7694 2.3989C16.3006 1.93006 15.6647 1.66667 15.0017 1.66667H4.99999Z" fill="#8D7BB8"/>
</svg>
