<svg width="16" height="16" viewBox="0 0 16 16" fill="none" xmlns="http://www.w3.org/2000/svg">
<path d="M10.3103 14.198C10.2593 14.4506 10.1697 14.6823 10.0402 14.8946C9.90651 15.112 9.7315 15.3086 9.51653 15.4805C9.30017 15.6524 9.06591 15.7826 8.81097 15.8698C8.55604 15.957 8.28594 16 8.00069 16C7.71406 16 7.44396 15.9557 7.1904 15.8698C6.93685 15.7826 6.7012 15.6537 6.48623 15.4805C6.26988 15.3073 6.09625 15.112 5.96258 14.8946C5.82891 14.6771 5.73796 14.4375 5.68835 14.1745C5.66354 14.0469 5.75449 13.9245 5.88954 13.9011C5.89367 13.9011 5.93364 13.8972 5.93364 13.8972H10.0705C10.2083 13.8972 10.3213 14.0027 10.3213 14.1342C10.3199 14.1563 10.3158 14.1771 10.3103 14.198ZM2.78483 0.0330313C3.03701 -0.062018 3.32226 0.055166 3.42286 0.29344C3.52346 0.531714 3.39943 0.801237 3.14725 0.896287C2.60155 1.10201 2.14404 1.38716 1.77886 1.75694C1.41506 2.12672 1.14083 2.58504 0.96169 3.1358C0.881764 3.38059 0.606157 3.5186 0.347086 3.44309C0.0880158 3.36757 -0.0580558 3.10716 0.0218702 2.86237C0.24649 2.17229 0.593754 1.59418 1.05815 1.12284C1.52255 0.652804 2.09995 0.290836 2.78483 0.0330313ZM12.8527 0.896287C12.6006 0.801237 12.4765 0.531714 12.5771 0.29344C12.6777 0.055166 12.963 -0.062018 13.2152 0.0330313C13.9001 0.290836 14.4775 0.652804 14.9418 1.12414C15.4062 1.59679 15.7549 2.17489 15.9781 2.86368C16.0581 3.10846 15.912 3.36887 15.6529 3.44439C15.3938 3.51991 15.1182 3.38189 15.0383 3.1371C14.8592 2.58504 14.5849 2.12672 14.2211 1.75824C13.856 1.38716 13.3984 1.10201 12.8527 0.896287ZM9.90927 1.55512C10.1904 1.66059 10.4605 1.78688 10.7196 1.93402C10.7292 1.94053 10.7402 1.94573 10.7499 1.95224C10.9979 2.09677 11.2294 2.25562 11.4416 2.42749C11.895 2.79597 12.2726 3.22825 12.5716 3.71782C12.7205 3.9626 12.8486 4.2178 12.9547 4.48081C13.0636 4.75294 13.1449 5.03028 13.2 5.31542C13.2538 5.60187 13.2813 5.89483 13.2813 6.19561C13.2813 6.78934 13.2813 7.11094 13.2813 7.15001C13.2827 7.45468 13.2841 7.75285 13.2868 8.04321V8.04581C13.2882 8.30882 13.3061 8.57314 13.3406 8.83745C13.375 9.09916 13.4246 9.35176 13.4894 9.59524C13.5542 9.83482 13.6424 10.0666 13.7512 10.2879C13.8642 10.5158 14.002 10.7397 14.1633 10.9572H14.1646C14.3245 11.1707 14.5243 11.3829 14.7641 11.5913C15.0121 11.8061 15.2988 12.0183 15.6267 12.2241C15.8141 12.3426 15.8651 12.5834 15.7384 12.7605C15.6598 12.8712 15.5303 12.9324 15.398 12.9324V12.9337H11.698H8.00069H4.30067H0.602023C0.374647 12.9337 0.191368 12.7605 0.191368 12.5457C0.191368 12.4051 0.271294 12.2814 0.389805 12.2137C0.721912 12.0014 1.00716 11.7905 1.24556 11.5822C1.48259 11.3751 1.68102 11.1629 1.84088 10.9442C1.84501 10.9377 1.85052 10.9311 1.85603 10.9259C2.01037 10.7124 2.14266 10.495 2.25153 10.2736C2.36315 10.0484 2.45272 9.81659 2.51887 9.57832C2.52025 9.57311 2.52162 9.5679 2.523 9.56399C2.58639 9.33223 2.63462 9.08745 2.6677 8.83094C2.70077 8.57314 2.71868 8.30622 2.71868 8.03149V6.19561C2.71868 5.90004 2.74624 5.60708 2.80274 5.31412C2.85924 5.02247 2.94055 4.74253 3.04941 4.47561C3.1569 4.20869 3.28643 3.95218 3.43664 3.7074C3.73981 3.21262 4.11601 2.78425 4.57627 2.41317C4.80089 2.23218 5.04343 2.06682 5.30388 1.91969C5.56708 1.77126 5.83993 1.64626 6.12105 1.5447C6.31673 1.47439 6.5193 1.4158 6.72601 1.36763C6.79629 1.13456 6.91755 0.945764 7.08981 0.801237C7.32683 0.602025 7.63827 0.503069 8.02549 0.506975C8.40859 0.509579 8.71865 0.609837 8.95291 0.80905C9.78111 1.50564 8.75034 1.12284 9.90927 1.55512Z" fill="#1EB7CF"/>
</svg>
