<svg width="24" height="24" viewBox="0 0 24 24" fill="none" xmlns="http://www.w3.org/2000/svg">
<path d="M8.95935 22.0013C9.4806 23.1735 10.6364 24 12.0006 24C13.3648 24 14.5206 23.1735 15.0419 22.0013C14.08 22.0484 13.0797 22.08 12.0006 22.08C10.9216 22.08 9.92127 22.0483 8.95935 22.0013Z" fill="#1F1F1F"/>
<path d="M22.5884 16.92C21.3231 15.3245 19.1996 12.1882 19.1996 9.12C19.1996 6.07776 17.2451 3.34078 14.3996 2.3347C14.3651 1.04062 13.3014 0 12.0006 0C10.6988 0 9.63611 1.04062 9.60151 2.3347C6.75512 3.34078 4.80057 6.07776 4.80057 9.12C4.80057 12.1891 2.67803 15.3245 1.41179 16.92C0.989403 17.4528 0.858809 18.1565 1.06332 18.8025C1.26301 19.4332 1.76026 19.9219 2.39387 20.1082C3.50364 20.4355 5.32281 20.8042 8.09725 20.9923C9.29818 21.0729 10.5894 21.12 12.0006 21.12C13.4109 21.12 14.7021 21.0729 15.903 20.9923C18.6784 20.8042 20.4966 20.4355 21.6073 20.1082C22.2409 19.9219 22.7372 19.4333 22.9369 18.8025C23.1414 18.1565 23.0099 17.4528 22.5884 16.92Z" fill="#1F1F1F"/>
</svg>
