<svg width="220" height="167" viewBox="0 0 220 167" fill="none" xmlns="http://www.w3.org/2000/svg">
<g clip-path="url(#clip0_336_2249)">
<path d="M88.0329 34.632H87.2303V12.696C87.2303 11.0287 86.9012 9.37778 86.2617 7.83744C85.6222 6.29709 84.6849 4.8975 83.5032 3.71857C82.3216 2.53964 80.9188 1.60446 79.3749 0.966427C77.8311 0.328394 76.1764 1.41263e-06 74.5053 0H27.9245C24.5496 -6.41899e-06 21.313 1.33759 18.9266 3.71854C16.5401 6.09949 15.1995 9.32875 15.1995 12.6959V133.039C15.1995 134.706 15.5286 136.357 16.1681 137.897C16.8076 139.437 17.7449 140.837 18.9265 142.016C20.1082 143.195 21.511 144.13 23.0548 144.768C24.5987 145.406 26.2534 145.734 27.9245 145.734H74.5052C77.8801 145.734 81.1168 144.397 83.5032 142.016C85.8896 139.635 87.2303 136.406 87.2303 133.039V50.2464H88.0329V34.632Z" fill="#3F3D56"/>
<path d="M75.0187 3.30305H68.9384C69.218 3.98702 69.3247 4.7291 69.2492 5.46392C69.1736 6.19874 68.9181 6.90375 68.5051 7.51684C68.0922 8.12993 67.5344 8.63228 66.881 8.97964C66.2276 9.32701 65.4986 9.50872 64.7583 9.50878H38.0727C37.3324 9.50872 36.6034 9.32701 35.95 8.97965C35.2966 8.63228 34.7388 8.12993 34.3259 7.51684C33.9129 6.90375 33.6574 6.19874 33.5818 5.46392C33.5063 4.7291 33.613 3.98702 33.8926 3.30305H28.2136C26.9657 3.30305 25.7299 3.54829 24.577 4.02476C23.4241 4.50123 22.3765 5.19961 21.494 6.08002C20.6116 6.96043 19.9116 8.00563 19.4341 9.15594C18.9565 10.3063 18.7107 11.5392 18.7107 12.7842V132.95C18.7107 134.195 18.9565 135.428 19.4341 136.579C19.9116 137.729 20.6116 138.774 21.494 139.654C22.3765 140.535 23.424 141.233 24.577 141.71C25.7299 142.186 26.9657 142.431 28.2136 142.431H75.0187C76.2666 142.431 77.5023 142.186 78.6553 141.71C79.8082 141.233 80.8558 140.535 81.7383 139.654C82.6207 138.774 83.3207 137.729 83.7982 136.579C84.2758 135.428 84.5216 134.195 84.5216 132.95V12.7842C84.5216 11.5392 84.2758 10.3063 83.7982 9.15594C83.3207 8.00563 82.6207 6.96043 81.7383 6.08002C80.8558 5.19961 79.8082 4.50123 78.6553 4.02476C77.5023 3.54829 76.2666 3.30305 75.0187 3.30305Z" fill="white"/>
<path d="M102.963 145.755H0.269537C0.198051 145.755 0.129493 145.727 0.0789453 145.676C0.0283973 145.626 0 145.558 0 145.486C0 145.415 0.0283973 145.347 0.0789453 145.296C0.129493 145.246 0.198051 145.217 0.269537 145.217H102.963C103.034 145.217 103.103 145.246 103.154 145.296C103.204 145.347 103.233 145.415 103.233 145.486C103.233 145.558 103.204 145.626 103.154 145.676C103.103 145.727 103.034 145.755 102.963 145.755Z" fill="#CBCBCB"/>
<path d="M51.6163 92.9606C64.1871 92.9606 74.3777 82.7933 74.3777 70.2512C74.3777 57.7092 64.1871 47.5419 51.6163 47.5419C39.0456 47.5419 28.855 57.7092 28.855 70.2512C28.855 82.7933 39.0456 92.9606 51.6163 92.9606Z" fill="#1EB7CF"/>
<path d="M49.3607 78.9142C48.8486 78.915 48.3502 78.7498 47.9405 78.4433L47.9151 78.4243L42.5659 74.3416C42.3181 74.1521 42.1102 73.9158 41.954 73.6461C41.7978 73.3765 41.6964 73.0787 41.6555 72.77C41.6146 72.4612 41.6351 72.1474 41.7157 71.8465C41.7964 71.5456 41.9357 71.2636 42.1256 71.0164C42.3155 70.7692 42.5524 70.5618 42.8227 70.4059C43.093 70.2501 43.3914 70.1489 43.7009 70.1081C44.0104 70.0673 44.3249 70.0877 44.6264 70.1682C44.928 70.2487 45.2107 70.3876 45.4585 70.5771L48.9233 73.228L57.1108 62.571C57.3006 62.3239 57.5374 62.1165 57.8076 61.9607C58.0777 61.805 58.376 61.7038 58.6854 61.663C58.9947 61.6223 59.3091 61.6427 59.6105 61.7231C59.912 61.8036 60.1946 61.9425 60.4422 62.1319L60.4429 62.1324L60.3921 62.2028L60.4443 62.1324C60.9439 62.5155 61.2708 63.0807 61.3532 63.704C61.4356 64.3273 61.2668 64.9577 60.8838 65.457L51.2536 77.9865C51.0308 78.2752 50.7443 78.5088 50.4164 78.6692C50.0885 78.8296 49.728 78.9125 49.3628 78.9114L49.3607 78.9142Z" fill="white"/>
<path d="M187.124 147.987C187.401 147.541 187.727 147.126 188.096 146.752C188.249 146.594 188.409 146.446 188.575 146.301C189.581 145.408 190.808 144.798 192.129 144.534C193.45 144.27 194.818 144.362 196.091 144.8C197.365 145.239 198.499 146.007 199.376 147.028C200.253 148.048 200.842 149.283 201.082 150.606C202.193 146.504 199.299 142.464 196.39 139.361C193.479 136.259 190.152 132.855 190.169 128.605C190.177 126.239 191.337 124.129 193.088 122.565C193.142 122.517 193.196 122.47 193.251 122.424C195.367 120.614 198.09 119.667 200.876 119.773C206.05 120.05 210.569 123.52 213.707 127.636C218.758 134.258 220.971 143.555 217.435 151.094C214.325 157.725 207.691 161.662 200.922 164.827C199.976 165.27 199.033 165.698 198.091 166.114C198.085 166.115 198.078 166.12 198.072 166.121C198.027 166.141 197.981 166.161 197.939 166.182C197.745 166.267 197.55 166.353 197.358 166.437L197.447 166.495L197.725 166.675C197.629 166.617 197.533 166.56 197.437 166.502C197.408 166.484 197.378 166.468 197.349 166.45C194.024 164.46 190.653 162.354 188.356 159.246C185.974 156.02 185.016 151.398 187.124 147.987Z" fill="#F1F1F1"/>
<path d="M209.308 140.494C210.044 142.165 210.533 143.935 210.757 145.746C210.934 147.362 210.867 148.994 210.56 150.59C209.9 153.869 208.46 156.943 206.361 159.551C204.778 161.532 202.95 163.304 200.922 164.827C199.976 165.27 199.033 165.698 198.091 166.114C198.085 166.115 198.078 166.12 198.072 166.121C198.027 166.141 197.981 166.161 197.939 166.182C197.745 166.267 197.55 166.353 197.358 166.437L197.447 166.495L197.725 166.675C197.629 166.617 197.533 166.56 197.437 166.502C197.408 166.484 197.378 166.468 197.349 166.45C198.081 163.896 198.188 161.205 197.663 158.601C197.137 155.998 195.994 153.558 194.328 151.486C192.654 149.44 190.519 147.818 188.096 146.752C188.249 146.594 188.409 146.446 188.575 146.301C189.507 146.729 190.401 147.238 191.244 147.822C194.259 149.902 196.524 152.894 197.702 156.358C198.753 159.5 198.885 162.876 198.08 166.089C198.247 165.981 198.415 165.869 198.578 165.758C201.675 163.674 204.53 161.171 206.68 158.101C208.535 155.507 209.721 152.498 210.136 149.339C210.548 145.887 209.683 142.494 208.138 139.414C206.433 136.12 204.284 133.073 201.751 130.359C199.207 127.571 196.331 125.103 193.186 123.012C193.116 122.964 193.066 122.891 193.047 122.808C193.029 122.725 193.043 122.638 193.088 122.565C193.121 122.498 193.18 122.448 193.251 122.424C193.287 122.415 193.324 122.414 193.361 122.421C193.397 122.429 193.431 122.444 193.461 122.467C193.849 122.725 194.234 122.986 194.614 123.254C197.781 125.491 200.657 128.113 203.176 131.057C205.61 133.896 207.826 137.049 209.308 140.494Z" fill="white"/>
<path d="M141.518 10.5445C144.188 10.5445 146.352 8.38527 146.352 5.72169C146.352 3.0581 144.188 0.898842 141.518 0.898842C138.848 0.898842 136.684 3.0581 136.684 5.72169C136.684 8.38527 138.848 10.5445 141.518 10.5445Z" fill="#F1F1F1"/>
<path d="M201.625 75.0856C203.252 75.0856 204.572 73.7691 204.572 72.1452C204.572 70.5213 203.252 69.2048 201.625 69.2048C199.997 69.2048 198.677 70.5213 198.677 72.1452C198.677 73.7691 199.997 75.0856 201.625 75.0856Z" fill="#F1F1F1"/>
<path d="M115.373 83.1532C117.001 83.1532 118.32 81.8368 118.32 80.2128C118.32 78.5889 117.001 77.2724 115.373 77.2724C113.745 77.2724 112.426 78.5889 112.426 80.2128C112.426 81.8368 113.745 83.1532 115.373 83.1532Z" fill="#F1F1F1"/>
<path d="M117.037 167H219.73C219.802 167 219.87 166.972 219.921 166.921C219.971 166.871 220 166.802 220 166.731C220 166.66 219.971 166.591 219.921 166.541C219.87 166.491 219.802 166.462 219.73 166.462H117.037C116.965 166.462 116.897 166.491 116.846 166.541C116.796 166.591 116.767 166.66 116.767 166.731C116.767 166.802 116.796 166.871 116.846 166.921C116.897 166.972 116.965 167 117.037 167Z" fill="#CBCBCB"/>
<path d="M208.398 25.9872C208.532 25.032 208.311 24.0607 207.776 23.2572C207.241 22.4537 206.43 21.874 205.495 21.6278C204.56 21.3817 203.567 21.4862 202.704 21.9216C201.842 22.357 201.169 23.093 200.814 23.9901L192.48 33.5218L194.926 40.3354L203.306 29.198C203.853 29.3728 204.432 29.4258 205.001 29.3533C205.571 29.2808 206.118 29.0846 206.603 28.7785C207.089 28.4724 207.501 28.0638 207.811 27.5815C208.121 27.0993 208.321 26.555 208.398 25.9872Z" fill="#FFB7B7"/>
<path d="M173.855 63.0752L201.517 33.6205L197.786 27.7021L163.09 56.9779L173.855 63.0752Z" fill="#3F3D56"/>
<path d="M167.681 45.1787C173.04 45.1787 177.384 40.8443 177.384 35.4976C177.384 30.1508 173.04 25.8164 167.681 25.8164C162.322 25.8164 157.978 30.1508 157.978 35.4976C157.978 40.8443 162.322 45.1787 167.681 45.1787Z" fill="#2F2E41"/>
<path d="M168.461 30.0286C170.549 27.9161 173.076 26.2859 175.863 25.2528C177.653 24.5914 179.6 24.1827 181.471 24.5584C183.342 24.9339 185.111 26.2251 185.633 28.0564C186.059 29.5539 185.619 31.1662 184.957 32.5758C184.294 33.9854 183.41 35.2925 182.874 36.7548C182.328 38.2468 182.164 39.8513 182.396 41.4227C182.629 42.9941 183.251 44.4827 184.207 45.7533C185.163 47.0238 186.421 48.0362 187.868 48.6984C189.315 49.3606 190.905 49.6517 192.494 49.5453C190.656 49.7912 188.962 50.653 187.165 51.1117C185.368 51.5704 183.248 51.5393 181.913 50.2551C180.5 48.8964 180.472 46.6873 180.54 44.7308C180.642 41.8225 180.743 38.9141 180.845 36.0057C180.897 34.5225 180.941 32.9917 180.405 31.6073C179.868 30.223 178.594 29.0107 177.107 29.0233C175.98 29.0329 174.982 29.7143 174.078 30.3862C173.174 31.0582 172.217 31.7751 171.094 31.8751C169.971 31.975 168.689 31.1459 168.773 30.0242L168.461 30.0286Z" fill="#2F2E41"/>
<path d="M130.827 100.502C129.895 100.76 128.901 100.668 128.033 100.244C127.165 99.82 126.483 99.0927 126.116 98.2002C125.749 97.3077 125.723 96.312 126.043 95.4017C126.363 94.4914 127.006 93.7298 127.851 93.2613L136.234 83.7728L143.324 85.3011L133.352 95.0463C133.597 95.5644 133.726 96.1298 133.728 96.7028C133.73 97.2757 133.607 97.8422 133.366 98.3623C133.125 98.8825 132.773 99.3436 132.335 99.7133C131.896 100.083 131.381 100.352 130.827 100.502Z" fill="#FFB7B7"/>
<path d="M158.406 66.5324L137.513 92.6984L131.145 89.7812L155.702 51.6361L158.406 66.5324Z" fill="#3F3D56"/>
<path d="M141.735 145.543L136.756 145.465L137.355 162.398H141.734L141.735 145.543Z" fill="#FFB7B7"/>
<path d="M142.852 160.971L134.226 160.971H134.226C132.768 160.971 131.37 161.549 130.339 162.577C129.308 163.606 128.729 165.001 128.729 166.455V166.633L142.851 166.634L142.852 160.971Z" fill="#2F2E41"/>
<path d="M174.704 141.052L169.265 144.536L180.145 157.596L183.831 155.236L174.704 141.052Z" fill="#FFB7B7"/>
<path d="M183.998 153.433L176.74 158.082L176.74 158.082C175.513 158.868 174.65 160.108 174.339 161.529C174.029 162.95 174.297 164.436 175.084 165.66L175.181 165.81L187.065 158.198L183.998 153.433Z" fill="#2F2E41"/>
<path d="M176.642 89.3464C176.642 89.3464 164.556 49.2966 160.672 48.7554C156.788 48.2142 150.53 59.0317 150.53 59.0317C142.416 69.3605 134.049 102.818 134.049 102.818C134.049 102.818 147.997 103.688 158.193 109.101C168.388 114.513 180.421 108.827 180.421 108.827L176.642 89.3464Z" fill="#3F3D56"/>
<path opacity="0.1" d="M176.642 89.3464C176.642 89.3464 164.556 49.2966 160.672 48.7554C156.788 48.2142 152.119 59.1415 152.119 59.1415C148.076 75.8146 134.049 102.818 134.049 102.818C134.049 102.818 147.997 103.688 158.193 109.101C168.388 114.513 180.421 108.827 180.421 108.827L176.642 89.3464Z" fill="black"/>
<path d="M166.726 77.3638V97.4885L169.1 126.641L180.96 148.692L175.3 152.726L159.127 131.75L152.731 110.922L142.686 157.029L135.139 156.491L140.38 92.5653L150.326 74.5718L166.726 77.3638Z" fill="#2F2E41"/>
<path d="M154.541 57.8986C150.767 61.6635 154.271 65.6973 154.271 65.6973L149.959 75.3785L166.94 79.9502L172.874 53.4942L168.831 49.1914C160.745 48.9225 160.74 48.7553 160.74 48.7553C159.323 50.1386 154.541 57.8986 154.541 57.8986Z" fill="#1EB7CF"/>
<path d="M173.558 50.7533C172.786 50.1854 171.91 49.7757 170.979 49.5481C170.048 49.3204 169.081 49.2794 168.134 49.4273C167.187 49.5752 166.278 49.9091 165.462 50.4097C164.645 50.9103 163.936 51.5676 163.375 52.3435C159.106 58.2738 155.159 67.8498 160.598 79.7928C169.33 98.9694 176.93 108.786 180.019 108.785C180.154 108.786 180.288 108.765 180.416 108.723C182.318 108.079 185.067 104.869 185.565 102.04C185.743 101.027 185.701 99.6165 184.487 98.648C181 95.8657 174.741 87.2023 172.789 75.7994C171.71 69.4986 173.802 63.7592 175.748 60.0541C176.569 58.521 176.81 56.7438 176.425 55.0482C176.04 53.3527 175.055 51.8523 173.651 50.8223L173.558 50.7533Z" fill="#3F3D56"/>
<path d="M168.18 44.2277C171.641 42.3398 172.913 38.0098 171.021 34.5563C169.129 31.1028 164.789 29.8336 161.328 31.7214C157.866 33.6093 156.594 37.9393 158.486 41.3928C160.379 44.8463 164.719 46.1155 168.18 44.2277Z" fill="#FFB7B7"/>
<path d="M154.708 37.4357H165.022L165.128 35.9583L165.657 37.4357H167.245L167.455 34.5076L168.503 37.4357H171.576V37.2907C171.574 35.2521 170.761 33.2977 169.316 31.8562C167.871 30.4148 165.913 29.6039 163.869 29.6016H162.415C160.372 29.6039 158.413 30.4147 156.968 31.8562C155.523 33.2977 154.711 35.2521 154.708 37.2907V37.4357Z" fill="#2F2E41"/>
<path d="M170.018 42.7462L174.419 41.3212V30.657H166.105L166.311 30.862C169.175 33.7155 172.36 43.8394 170.018 42.7462Z" fill="#2F2E41"/>
</g>
<defs>
<clipPath id="clip0_336_2249">
<rect width="220" height="167" fill="white"/>
</clipPath>
</defs>
</svg>
