<svg width="18" height="20" viewBox="0 0 18 20" fill="none" xmlns="http://www.w3.org/2000/svg">
<path d="M5.64874 7.52317C5.9542 7.82863 5.9542 8.32317 5.64874 8.62786C5.34326 8.93333 4.84874 8.93333 4.54405 8.62786C4.23858 8.32239 4.23858 7.82786 4.54405 7.52317C4.84951 7.21769 5.34405 7.21769 5.64874 7.52317ZM16.4706 12.2771L16.0292 12.7185C16.0081 13.6818 15.6347 14.638 14.9081 15.3739L12.4339 17.8802C11.6972 18.6263 10.7144 19.0388 9.66593 19.0419H9.65264C8.60968 19.0419 7.6292 18.6357 6.8917 17.8982L1.09795 12.1536C0.590141 11.6466 0.344829 10.9489 0.422954 10.2372L1.02061 4.83411C1.06045 4.47786 1.33624 4.19427 1.69093 4.14583L7.07295 3.40989C7.80108 3.31302 8.53389 3.56067 9.04795 4.07473L14.8878 9.86536C15.1902 10.1677 15.4323 10.5083 15.6152 10.8716C16.2496 9.96067 16.1604 8.68801 15.3479 7.87552L9.41749 2.09036C9.23858 1.91146 8.9917 1.82864 8.75264 1.86223L3.37061 2.59817C2.9417 2.65598 2.54874 2.35677 2.49014 1.93021C2.43233 1.50286 2.73155 1.10911 3.15811 1.05051L8.54093 0.313795C9.26045 0.211451 10.0011 0.463014 10.5159 0.97942L16.4448 6.76458C17.9652 8.28411 17.9744 10.7536 16.4706 12.2771ZM13.7847 10.9724L7.94483 5.18177C7.77061 5.00754 7.52608 4.92708 7.28311 4.95754L2.50576 5.61146L1.9753 10.4083C1.94951 10.645 2.03076 10.8779 2.19951 11.0458L7.99326 16.7903C8.4378 17.2357 9.02608 17.4787 9.65186 17.4787H9.65968C10.2894 17.477 10.8792 17.2294 11.3206 16.781L13.7948 14.2747C14.6972 13.3607 14.6924 11.8786 13.7839 10.9708L13.7847 10.9724Z" fill="#8D7BB8"/>
</svg>
