<svg width="17" height="20" viewBox="0 0 17 20" fill="none" xmlns="http://www.w3.org/2000/svg">
<path d="M6.48106 8.87027H2.81408C2.72567 8.87027 2.64087 8.83289 2.57836 8.76635C2.51584 8.69981 2.48072 8.60956 2.48072 8.51546C2.48072 8.42136 2.51584 8.33111 2.57836 8.26457C2.64087 8.19803 2.72567 8.16064 2.81408 8.16064H6.48106C6.56948 8.16064 6.65427 8.19803 6.71679 8.26457C6.7793 8.33111 6.81443 8.42136 6.81443 8.51546C6.81443 8.60956 6.7793 8.69981 6.71679 8.76635C6.65427 8.83289 6.56948 8.87027 6.48106 8.87027Z" fill="#8D7BB8"/>
<path d="M2.81408 6.38672H11.4815C11.5699 6.38672 11.6547 6.4241 11.7172 6.49064C11.7797 6.55718 11.8149 6.64743 11.8149 6.74153C11.8149 6.83564 11.7797 6.92589 11.7172 6.99243C11.6547 7.05897 11.5699 7.09635 11.4815 7.09635H2.81408C2.72567 7.09635 2.64087 7.05897 2.57836 6.99243C2.51584 6.92589 2.48072 6.83564 2.48072 6.74153C2.48072 6.64743 2.51584 6.55718 2.57836 6.49064C2.64087 6.4241 2.72567 6.38672 2.81408 6.38672Z" fill="#8D7BB8"/>
<path d="M2.81408 4.61255H11.4815C11.5699 4.61255 11.6547 4.64993 11.7172 4.71647C11.7797 4.78301 11.8149 4.87326 11.8149 4.96736C11.8149 5.06147 11.7797 5.15172 11.7172 5.21826C11.6547 5.2848 11.5699 5.32218 11.4815 5.32218H2.81408C2.72567 5.32218 2.64087 5.2848 2.57836 5.21826C2.51584 5.15172 2.48072 5.06147 2.48072 4.96736C2.48072 4.87326 2.51584 4.78301 2.57836 4.71647C2.64087 4.64993 2.72567 4.61255 2.81408 4.61255Z" fill="#8D7BB8"/>
<path d="M2.81408 2.83862H11.4815C11.5699 2.83862 11.6547 2.87601 11.7172 2.94255C11.7797 3.00909 11.8149 3.09934 11.8149 3.19344C11.8149 3.28754 11.7797 3.37779 11.7172 3.44433C11.6547 3.51087 11.5699 3.54825 11.4815 3.54825H2.81408C2.72567 3.54825 2.64087 3.51087 2.57836 3.44433C2.51584 3.37779 2.48072 3.28754 2.48072 3.19344C2.48072 3.09934 2.51584 3.00909 2.57836 2.94255C2.64087 2.87601 2.72567 2.83862 2.81408 2.83862Z" fill="#8D7BB8"/>
<path d="M16.4286 8.5191L16.2019 8.76393L15.9619 8.50846L16.1719 8.28493C16.4503 7.9896 16.6135 7.59316 16.6288 7.17512C16.644 6.75707 16.5102 6.34835 16.2542 6.03093C15.9981 5.71351 15.6388 5.51087 15.2482 5.46366C14.8577 5.41645 14.4648 5.52816 14.1484 5.77639V1.06444C14.1476 0.782395 14.042 0.512139 13.8546 0.312699C13.6672 0.113259 13.4133 0.000842362 13.1483 0H1.14727C0.882273 0.000842362 0.628357 0.113259 0.440975 0.312699C0.253594 0.512139 0.147974 0.782395 0.147182 1.06444V18.0956C0.147974 18.3776 0.253594 18.6479 0.440975 18.8473C0.628357 19.0467 0.882273 19.1592 1.14727 19.16H13.1483C13.4133 19.1592 13.6672 19.0467 13.8546 18.8473C14.042 18.6479 14.1476 18.3776 14.1484 18.0956V11.9537L16.902 9.02294C16.9647 8.95613 17 8.86551 17 8.77102C17 8.67653 16.9647 8.58592 16.902 8.5191C16.8392 8.45229 16.754 8.41475 16.6653 8.41475C16.5765 8.41475 16.4914 8.45229 16.4286 8.5191ZM13.4817 11.6592L13.0916 12.0743C13.0349 12.134 13.0004 12.2133 12.9942 12.2979C12.9881 12.3824 13.0108 12.4665 13.0582 12.5347C13.1057 12.6028 13.1746 12.6505 13.2524 12.6689C13.3302 12.6873 13.4116 12.6753 13.4817 12.635V18.0956C13.4817 18.1897 13.4465 18.2799 13.384 18.3464C13.3215 18.413 13.2367 18.4504 13.1483 18.4504H1.14727C1.05886 18.4504 0.974064 18.413 0.911546 18.3464C0.849029 18.2799 0.813907 18.1897 0.813907 18.0956V1.06444C0.813907 0.970342 0.849029 0.880093 0.911546 0.813552C0.974064 0.747012 1.05886 0.70963 1.14727 0.70963H13.1483C13.2367 0.70963 13.3215 0.747012 13.384 0.813552C13.4465 0.880093 13.4817 0.970342 13.4817 1.06444V6.45763C12.0815 7.94785 7.24113 13.0998 7.23779 13.1069C7.14345 13.2073 7.07511 13.2587 7.05111 13.3943C7.04311 13.4297 6.59774 15.5891 6.59774 15.626L6.26104 15.9844C6.19827 16.0512 6.163 16.1418 6.163 16.2363C6.163 16.3308 6.19827 16.4214 6.26104 16.4882C6.32382 16.5551 6.40895 16.5926 6.49773 16.5926C6.5865 16.5926 6.67164 16.5551 6.73442 16.4882L7.07445 16.1263C7.12612 16.1263 9.11896 15.6598 9.16796 15.6473C9.31964 15.6094 9.33164 15.5689 9.44132 15.4522L13.4817 11.1483V11.6592ZM7.53115 14.001L8.59791 15.1364C7.49582 15.3965 8.1272 15.2489 7.23446 15.4522C7.41881 14.5343 7.3478 14.8813 7.53115 14.001ZM9.22463 14.6822L7.96119 13.3375C8.06453 13.2218 12.7683 8.21716 12.8749 8.10397L14.1384 9.44872C13.953 9.64493 9.38131 14.5066 9.22463 14.6822ZM14.1484 10.9496V10.4387C15.2685 9.24647 14.9755 9.55765 15.4918 9.0123L15.7319 9.26421L14.1484 10.9496ZM15.6985 7.78464C15.1398 8.37931 15.3838 8.11887 14.6118 8.94488H14.6084L13.3517 7.60368C13.5453 7.39257 13.357 7.5941 14.4384 6.44344C14.6061 6.26854 14.8318 6.17114 15.0666 6.1724C15.3014 6.17367 15.5262 6.27349 15.6922 6.45018C15.8582 6.62687 15.952 6.86615 15.9532 7.11602C15.9544 7.36589 15.8628 7.60617 15.6985 7.78464Z" fill="#8D7BB8"/>
</svg>
